{"title":"All the Presidents Men (1976) Hoffman + Redford (Opt.MULTISUBS)","uid":4492968,"size":759460063,"categoryP":"video","categoryS":"movies","magnet":"?xt=urn:btih:e645cf54cc56e35bbba17994fcd14bba6f74f59e&amp;dn=All+the+Presidents+Men+%281976%29+Hoffman+%2B+Redford+%28Opt.MULTISUBS%29&amp;tr=udp%3A%2F%2Ftracker.openbittorrent.com%3A80&amp;tr=udp%3A%2F%2Fopen.demonii.com%3A1337&amp;tr=udp%3A%2F%2Ftracker.coppersurfer.tk%3A6969&amp;tr=udp%3A%2F%2Fexodus.desync.com%3A6969","seeders":2,"leechers":0,"uploader":"Kuthumi","files":-1,"time":1226064045,"description":"aka\nAll the President's Men (1976) \n &lt;a href=&quot;\nhttp://www.imdb.com/title/tt0074119/&quot; rel=&quot;nofollow&quot; target=&quot;_NEW&quot;&gt;\nhttp://www.imdb.com/title/tt0074119/&lt;/a&gt;\n\nWith Dustin Hoffman and Robert Redford\n\nOptional subtitles in separate idx/sub files:\nBulgarian, Danish, English, Finnish, German, Greek, Hebrew, Icelandic, Italian, Norwegian, Polish, Portuguese, Romanian, Spanish, Swedish.\n(Sorry, Dutch friends, your language was not on the DVD.)\n\nWith subtitles, only a full DVD seems to remain here on PB of this classic about one of the most dramatic political intrigues in newer history, winning 4 Oscars. So I made this new rip with multisubs.\n\nMy new ripping procedure now produces decent quality for such a long film compressed into just 700 MiB. I enclose a sample for ye weak in faith. \n\nWidescreen DVDrip XviD 2-pass 720x384, original mono sound AC3.\nBurn tested, runs well in both my standalone DivX players.\n\nFormat/Info                      : Audio Video Interleave\nFile size                        : 692 MiB\nDuration                         : 2h 12mn\nOveral bit rate                  : 730 Kbps\n\nVideo\nFormat                           : MPEG-4 Visual\nFormat profile                   : Streaming Video@L1\nFormat settings, BVOP            : Yes\nFormat settings, QPel            : No\nFormat settings, GMC             : No warppoints\nFormat settings, Matrix          : Default\nMuxing mode                      : Packet Bitstream\nCodec ID                         : XVID\nCodec ID/Hint                    : XviD\nDuration                         : 2h 12mn\nBit rate                         : 592 Kbps\nWidth                            : 720 pixels\nHeight                           : 384 pixels\nDisplay aspect ratio             : 1.875\nFrame rate                       : 25.000 fps\nResolution                       : 8 bits\nColorimetry                      : 4:2:0\nScan type                        : Progressive\nBits/(Pixel*Frame)               : 0.086\nStream size                      : 562 MiB\nWriting library                  : XviD 1.2.0.dev47 (UTC 2006-11-01)\n\nAudio\nFormat                           : MPEG Audio\nFormat version                   : Version 1\nFormat profile                   : Layer 3\nCodec ID                         : 55\nCodec ID/Hint                    : MP3\nDuration                         : 2h 12mn\nBit rate mode                    : Constant\nBit rate                         : 128 Kbps\nMinimum bit rate                 : 128 Kbps\nChannel(s)                       : 2 channels\nSampling rate                    : 48.0 KHz\nResolution                       : 16 bits\nStream size                      : 121 MiB\nWriting library                  : LAME3.97 \nEncoding settings                : CBR\n\nSource: PAL native (note that PAL/NTSC will give no problems for avi files).","torrent":{"xt":"urn:btih:e645cf54cc56e35bbba17994fcd14bba6f74f59e","amp;dn":"All+the+Presidents+Men+%281976%29+Hoffman+%2B+Redford+%28Opt.MULTISUBS%29","amp;tr":["udp%3A%2F%2Ftracker.openbittorrent.com%3A80","udp%3A%2F%2Fopen.demonii.com%3A1337","udp%3A%2F%2Ftracker.coppersurfer.tk%3A6969","udp%3A%2F%2Fexodus.desync.com%3A6969"],"infoHash":"e645cf54cc56e35bbba17994fcd14bba6f74f59e","infoHashBuffer":{"type":"Buffer","data":[230,69,207,84,204,86,227,91,187,161,121,148,252,209,75,186,111,116,245,158]},"announce":[],"urlList":[]}}